<?xml version="1.0"?><svg width="640" height="480" xmlns="http://www.w3.org/2000/svg">
 <title>pink tiara</title>
 <metadata id="metadata2401">image/svg+xmlCrown with cross on the topcrown religious cross king</metadata>
 <g>
  <title>Layer 1</title>
  <path d="m482.75589,216.118988c-34.699829,-10.895737 -70.108765,-16.071625 -105.852173,-18.642395c9.892181,-20.098846 -0.078186,-37.278046 -19.197083,-43.335709l-0.909027,-9.01239l8.315887,0l7.621368,6.234192c12.89566,-12.101135 10.993927,-23.598473 -1.038086,-34.663376l-3.465271,5.546913l-9.359497,0.339989l0,-4.501579l5.886963,-6.932312c-14.850067,-7.385048 -30.218292,-7.499573 -46.104675,-0.339989l8.315918,4.850677l3.117981,7.27951l-9.701263,0l-6.583252,-5.199669c-10.67392,10.632225 -10.441193,23.344231 0.689026,38.137749l5.801514,-9.957611l8.06134,0.256348l-0.561768,8.230438c-23.22229,10.424866 -28.236542,25.013306 -15.035492,43.768417c-38.939575,1.329193 -76.024765,8.843323 -111.853638,20.582474c-14.175552,-15.631668 -29.521927,-11.782974 -41.361267,-35.21254c2.458038,28.563812 -6.626877,36.845169 -5.808746,54.236908c-13.244705,6.101471 -24.934967,14.800964 -35.061653,26.100342c-18.906197,-17.569916 -35.779793,-23.96228 -52.597,-29.998306c14.544617,21.298965 22.07328,43.370255 33.116302,65.059555c-1.229042,9.154022 1.747169,16.035461 14.026474,17.918976l31.552727,46.750092c-3.763397,9.610352 0.909042,18.180756 10.517593,19.480682l13.244705,17.918976c54.542343,-8.479492 109.482834,-15.013672 164.025192,-15.319092c63.1073,-0.341827 124.27652,5.53241 188.945587,13.364685l12.462952,-20.644287c10.255737,-0.645416 16.619019,-9.346741 11.292053,-19.864319l30.772827,-45.579224c14.417297,-0.647247 16.235413,-7.137787 14.026428,-20.255219l28.436584,-62.332443c-16.100891,11.817505 -35.716187,16.228165 -48.308167,28.436752c-9.899414,-10.128708 -21.65332,-17.790085 -34.670776,-23.764297c1.818115,-23.498657 -7.272278,-32.58905 -7.399597,-51.815216c-13.564636,18.358948 -20.511505,7.890457 -45.373749,32.88176l0.012756,-0.005463zm14.971863,87.969177c5.019745,-7.42868 -0.007294,-8.174072 -4.381592,-3.707062c-13.87738,19.573425 -8.47403,33.030853 12.817474,40.154053c29.196533,3.607086 37.51239,-8.99765 45.182861,-22.61142c2.932556,-5.696045 0.759949,-9.14856 -3.359802,-1.683533c-9.012207,9.026733 -7.514099,16.880829 -26.77301,19.835236c4.296143,-12.606567 6.83783,-34.281677 22.562317,-57.623444c4.821594,-6.798004 10.617615,-6.214386 16.404541,-5.959869c-8.834045,-9.408356 -20.509705,-16.759018 -32.987183,-23.542282l-4.097961,6.754166c18.351685,2.158051 24.87677,13.699219 12.413818,32.837769c-5.717834,17.137207 -30.054657,30.745514 -29.678314,46.59552c-13.713745,-5.070618 -15.993622,-13.464691 -8.095886,-31.034607l-0.007263,-0.014526zm-121.7258,-86.6418c1.732635,5.930389 0.474548,11.910049 -3.772491,17.938797c27.158447,-10.49559 48.499054,-2.507126 48.620819,23.891541c-0.987213,18.926025 -24.565857,36.999176 -18.720734,62.246826c-20.887878,-2.514404 -26.782074,-11.504791 -25.680359,-33.556274c-3.750671,-10.40448 -15.851807,-7.264679 -12.059296,8.606781c8.074097,35.887054 56.544067,47.186401 88.404053,21.596954c7.086884,-5.808746 11.164856,-12.853821 12.228424,-21.142426c0.058136,-10.08252 -7.932281,-8.804962 -11.468475,4.5961c-1.121765,15.275482 -13.061066,22.086029 -32.378143,23.095062c9.666718,-17.242676 3.296173,-34.245331 4.950623,-51.367432c5.241516,-26.895035 30.005554,-44.442932 51.49527,-29.543777l0.498108,-12.406769c-29.914612,-9.979416 -71.183167,-14.302811 -102.117798,-13.96283l0,0.007446zm-65.074493,-0.681778c-1.641693,5.957657 -0.292664,11.917511 4.047089,17.882629c-27.312988,-10.085068 -48.53363,-1.76918 -48.242737,24.629486c1.270874,18.911469 23.087799,39.428131 17.626282,64.768494c20.844269,-2.834381 30.005585,-16.469971 28.592926,-36.417908c3.592529,-10.460846 12.968323,-7.117432 10.793945,8.095886c-7.519623,35.997955 -55.813202,48.037262 -88.062286,22.938721c-7.172302,-5.696045 -11.362991,-12.684753 -12.548355,-20.951538c-0.214523,-10.077606 7.805008,-8.926788 11.539337,4.417908c1.356293,15.262756 13.393799,21.887848 32.725418,22.605988c-9.935791,-17.095398 -3.819794,-34.188965 -5.730621,-51.281982c-5.652374,-26.809555 -25.743958,-38.86142 -51.942459,-28.756714l-0.689056,-12.399292c36.332474,-9.813995 70.705063,-15.118973 101.897812,-15.517136l-0.007294,-0.014542zm-118.771378,89.752533c-2.067139,-6.690521 0.992676,-7.925018 4.381577,-3.707062c13.05925,19.160736 4.936081,31.254578 -12.81929,40.14679c-29.196503,3.608887 -38.548691,-8.650421 -46.22644,-22.264191c-2.932556,-5.696045 -0.410889,-9.146729 3.707062,-1.683533c9.012207,9.026764 6.477814,19.658875 34.748932,22.264191c-19.89888,-18.848022 -14.117371,-37.056061 -29.849197,-60.399841c-4.821564,-6.797791 -10.615768,-6.21402 -16.404541,-5.952362c10.483047,-8.863129 21.638779,-16.389984 32.989029,-23.542313l3.408905,5.361526c-18.351669,4.588806 -24.182251,15.084595 -11.71933,34.223145c5.717865,17.137177 30.056458,30.745514 29.680115,46.602783c10.935745,-4.728821 15.991837,-13.464691 8.095917,-31.034607" id="path16" fill-rule="evenodd" fill="#e52981"/>
  <path d="m156.142181,245.428253l-38.861458,28.072021l3.778839,5.327362l38.861443,-29.134964l-3.778824,-4.26442zm381.384796,-2.012527c12.719116,4.496109 24.498535,12.410278 35.342041,23.734818l-4.234741,4.741241c-11.191956,-11.741974 -22.376465,-18.804047 -33.56842,-23.732727l2.468567,-4.743332l-0.007446,0zm-163.27774,-41.633133l1.058197,8.758621l4.588745,0.359985c35.683075,0.78511 71.403198,5.407593 104.261871,17.892563l1.758789,-5.476532c-34.133728,-11.975601 -71.894348,-18.332977 -111.680542,-21.542297l0.012939,0.00766zm-170.270172,23.037811c31.187012,-11.638596 69.737122,-18.662323 111.400696,-23.096985c1.006317,3.283813 1.686462,5.556763 0.079681,8.848434c-37.912537,2.04892 -73.284256,8.490723 -109.460312,19.560593l-2.027481,-5.312042l0.007416,0zm117.25705,-31.070511l23.325409,-28.843887l24.381775,29.942825c14.377747,-14.899597 4.792572,-38.894852 -24.381775,-38.333603c-26.633514,1.436142 -37.058197,20.621063 -23.325409,37.242142l0,-0.007477zm-5.298492,-70.477013l4.942688,2.416573l18.01944,0.134033l-0.702393,-12.05027l-6.088013,-5.878563c6.580994,-3.806831 17.396729,-3.111664 26.105286,-0.360092l-5.871185,6.246368l-0.042633,12.050201l13.827393,0.09021l7.41864,-5.199081c3.706573,6.87458 3.706573,13.203217 0,18.984039l-5.298553,-3.64975l-15.89743,0.358093l0,7.66713l2.114594,8.392899l-18.375275,0.360168l2.824371,-16.425766l-18.019409,0.723633l-4.94455,3.644196c-2.64093,-6.388 -2.64093,-12.230484 0,-17.527008l-0.01297,0.022987zm-150.688431,82.414131c16.034592,10.284775 38.535263,11.782196 40.510864,49.711975c26.598312,-19.663818 42.582855,1.46698 49.2491,19.202301c4.866699,12.938812 -3.524948,28.661438 4.423798,50.914154c-10.634155,-1.914856 -17.215149,-9.417328 -19.748596,-22.499725c-5.734039,-21.794525 -29.037201,-16.394562 -21.776047,6.799713c15.354446,30.053894 42.336349,36.024445 66.471634,33.270874c26.5112,-3.021667 49.612305,-21.632324 47.468079,-52.105194c-7.253723,-15.864685 -15.187622,-16.395111 -23.801697,-1.562317c-5.06131,10.986938 2.526031,28.7742 -15.189484,32.963928c1.180542,-21.274231 -20.929108,-42.553589 -20.762299,-59.128754c3.706573,-28.169662 23.462555,-31.484497 54.18811,-17.787231c-16.883423,-34.797043 4.045685,-54.15657 19.240753,-70.641708c16.203247,18.139572 32.576935,33.487274 19.242584,70.116852c36.342865,-20.345505 63.308075,2.056564 53.543121,22.679916c-7.956116,16.806641 -22.065125,42.657013 -19.611389,54.753265c-26.670593,-5.401855 0.331757,-42.733826 -28.357056,-42.906128c-19.915375,5.05719 -15.695435,32.964081 6.580994,50.759003c12.487396,9.762024 27.682465,13.949829 45.57962,12.552002c21.95578,-0.396393 39.113464,-14.055176 52.976013,-36.786591c4.814819,-14.698151 -11.792419,-23.943207 -18.553223,-10.935852c-4.64801,16.613434 -11.61264,27.832642 -24.513336,31.183685c4.777771,-17.720215 1.651276,-38.991943 5.053894,-56.359802c10.69162,-24.610138 26.893005,-30.27243 48.596771,-16.973648c2.049683,-40.698669 29.233643,-41.25972 42.134277,-56.57869c2.476013,19.874435 16.953857,30.303024 -9.701904,63.162048c21.068115,2.864838 30.095398,13.4328 12.63385,40.952942c-6.747803,11.728577 -18.656982,20.973572 -24.37619,33.060242c-11.227234,-12.057922 1.608612,-17.712524 2.418518,-26.576477c2.418488,-14.503235 -14.066406,-12.423676 -22.645233,8.369873c-2.939301,24.064209 6.784882,39.846619 44.371216,37.401276c14.594604,-5.422913 25.467834,-14.309814 30.897949,-28.259644c2.475891,-7.793549 -0.884094,-12.394958 -8.035889,-9.530334c-7.435303,8.205231 -16.948242,26.375458 -22.326477,24.638672c3.4823,-11.989014 8.678955,-24.690369 12.16864,-36.681274c7.290771,-21.80426 17.628479,-27.8685 31.022156,-18.198578c3.38031,-18.265961 21.629578,-27.683289 34.154053,-33.554291l-19.581787,44.461029c-17.693237,-2.797638 -17.548645,11.87027 -13.819885,19.738495l-30.803406,48.92688c-16.151367,2.251862 -22.181946,10.958801 -12.003662,19.843811l-6.740417,17.308502c-119.681152,-26.082458 -238.717377,-26.239471 -357.045654,2.087219l-9.620377,-14.122162c12.993362,-10.112427 5.567245,-21.624664 -9.622238,-21.975067l-32.916122,-47.619019c9.199692,-9.813721 1.554901,-22.834869 -14.681686,-20.927643c-6.538368,-14.824554 -8.955055,-26.82312 -19.626266,-44.491653c17.222542,5.049515 32.627037,15.537491 36.333588,34.550003c9.448013,-12.377716 19.583633,-8.017334 30.384521,13.074371c4.894531,13.599426 3.945663,24.7229 14.681717,40.811676c-15.189484,-3.485077 -16.201401,-16.397064 -24.302094,-24.594635c-5.908264,-5.579926 -14.34993,0.344666 -8.60849,9.942017c22.702682,33.837708 57.987305,39.419556 74.948547,5.752289c3.880768,-15.169617 -1.011887,-26.861816 -14.681686,-35.059387c-9.112595,0 -10.63414,6.799683 -6.073212,15.692383c4.720306,6.799713 7.926498,11.512177 2.020065,21.97699c-12.240906,-21.557617 -24.150085,-28.393707 -30.384521,-39.838928c-10.380234,-19.073639 -7.831985,-32.04303 18.228867,-33.936859c-23.7146,-25.722473 -13.247253,-37.23468 -9.620392,-57.034454l0.007416,0.00766zm332.497147,62.346313c5.821106,1.330811 9.071747,5.752441 7.231506,9.842407c-1.838501,4.084442 -8.093323,6.336304 -13.920013,5.005676c-5.821167,-1.332947 -9.071808,-5.752472 -7.233368,-9.836884c1.840363,-4.084412 8.087708,-6.336334 13.914429,-5.003387l0.007446,-0.007813zm1.541901,-4.285278c8.723389,2.048889 13.595673,8.856262 10.837982,15.146393c-2.752106,6.290558 -12.126007,9.752441 -20.856842,7.703522c-8.723358,-2.048889 -13.595642,-8.856262 -10.837952,-15.146423c2.752106,-6.290527 12.126007,-9.754517 20.849426,-7.703491l0.007385,0zm84.722748,36.060242c4.351501,0 7.906067,3.111664 7.906067,6.926086c0,3.814423 -3.554565,6.926117 -7.906067,6.926117c-4.351501,0 -7.906128,-3.111694 -7.906128,-6.926117c0,-3.814423 3.554626,-6.926086 7.906128,-6.926086zm-43.681824,68.941132c4.349609,0 7.904236,3.111664 7.904236,6.928009c0,3.814423 -3.554626,6.926086 -7.904236,6.926086c-4.351563,0 -7.906128,-3.111664 -7.906128,-6.926086c0,-3.816345 3.554565,-6.928009 7.906128,-6.928009zm-74.97821,-20.016144c7.76709,0.718048 14.101624,6.897339 14.101624,13.741089c0,6.85141 -6.334534,11.849213 -14.101624,11.131165c-7.761536,-0.718079 -14.096039,-6.897369 -14.096039,-13.748779c0,-6.843781 6.334503,-11.849213 14.096039,-11.123474zm-0.370636,4.032684c5.430084,0.501709 9.861267,4.823578 9.861267,9.610748c0,4.78717 -4.431183,8.28183 -9.861267,7.780151c-5.428284,-0.501709 -9.859467,-4.8255 -9.859467,-9.612671c0,-4.787201 4.431183,-8.279938 9.859467,-7.778229zm-118.291229,-103.777969c10.417297,0 18.909058,6.382477 18.909058,14.212173c0,7.824188 -8.49176,14.212189 -18.909058,14.212189c-10.417297,0 -18.916443,-6.380371 -18.916443,-14.212189c0,-7.824158 8.499146,-14.212173 18.916443,-14.212173zm-0.520782,3.546341c7.854248,0 14.268433,4.630157 14.268433,10.30777c0,5.669922 -6.406799,10.300262 -14.268433,10.300262c-7.854187,0 -14.268402,-4.630341 -14.268402,-10.300262c0,-5.677612 6.406799,-10.30777 14.268402,-10.30777zm0.174225,86.00415c9.281189,0 16.85379,5.901642 16.85379,13.141754c0,7.242035 -7.566986,13.143707 -16.85379,13.143707c-9.281219,0 -16.853729,-5.901672 -16.853729,-13.143707c0,-7.240112 7.565094,-13.141754 16.853729,-13.141754zm-0.348389,4.264435c6.436401,0 11.692291,4.226105 11.692291,9.417297c0,5.183563 -5.248444,9.417358 -11.692291,9.417358c-6.434631,0 -11.690552,-4.226105 -11.690552,-9.417358c0,-5.183563 5.248505,-9.417297 11.690552,-9.417297zm-147.204254,-74.2677c6.247406,0 11.351334,3.986542 11.351334,8.877136c0,4.892487 -5.096527,8.879456 -11.351334,8.879456c-6.249268,0 -11.345779,-3.986969 -11.345779,-8.879456c0,-4.890594 5.096512,-8.877136 11.345779,-8.877136zm0.513336,-3.232544c8.810516,0 15.991974,5.618256 15.991974,12.513733c0,6.889893 -7.181458,12.513672 -15.991974,12.513672c-8.803085,0 -15.991959,-5.616333 -15.991959,-12.513672c0,-6.887634 7.181458,-12.513733 15.991959,-12.513733zm28.718445,84.575684c7.956131,0 14.442612,5.625885 14.442612,12.513641c0,6.88974 -6.486481,12.513733 -14.442612,12.513733c-7.956146,0 -14.442612,-5.616333 -14.442612,-12.513733c0,-6.887756 6.486465,-12.513641 14.442612,-12.513641zm0.17421,4.300781c5.587646,0 10.141174,3.747406 10.141174,8.346954c0,4.59375 -4.553528,8.348816 -10.141174,8.348816c-5.582077,0 -10.143005,-3.747406 -10.143005,-8.348816c0,-4.599548 4.553513,-8.346954 10.143005,-8.346954zm-74.464828,19.313416c4.351517,0 7.906097,2.916321 7.906097,6.506714c0,3.584656 -3.547165,6.508667 -7.906097,6.508667c-4.351486,0 -7.906067,-2.918274 -7.906067,-6.508667c0,-3.582733 3.554581,-6.506714 7.906067,-6.506714zm-45.918716,-71.434296c4.06794,0 7.390862,3.322327 7.390862,7.399078c0,4.076752 -3.322922,7.397156 -7.390862,7.397156c-4.069809,0 -7.392754,-3.320404 -7.392754,-7.397156c0,-4.076752 3.322945,-7.399078 7.392754,-7.399078" id="path18" fill-rule="evenodd" fill="#edc9d9"/>
 </g>
</svg>