<?xml version="1.0" encoding="iso-8859-1"?>
<!-- Generator: Adobe Illustrator 16.0.0, SVG Export Plug-In . SVG Version: 6.00 Build 0)  -->
<!DOCTYPE svg PUBLIC "-//W3C//DTD SVG 1.1//EN" "http://www.w3.org/Graphics/SVG/1.1/DTD/svg11.dtd">
<svg version="1.1" id="Capa_1" xmlns="http://www.w3.org/2000/svg" xmlns:xlink="http://www.w3.org/1999/xlink" x="0px" y="0px"
	 width="506.611px" height="506.611px" viewBox="0 0 506.611 506.611" style="enable-background:new 0 0 506.611 506.611;"
	 xml:space="preserve">
<g>
	<path fill="#e52981" d="M204.628,270.838c-14.057-11.962-15.759-33.124-3.806-47.181c6.359-7.488,15.664-11.781,25.503-11.781
		c7.927,0,15.625,2.831,21.678,7.975l29.454,25.054c-1.598-26.976-23.764-48.424-51.141-48.424
		c-28.41,0-51.437,23.026-51.437,51.437s23.026,51.437,51.437,51.437c3.614,0,7.134-0.392,10.538-1.1L204.628,270.838z"/>
	<path fill="#e52981" d="M339.115,385.445c-30.896,24.92-70.111,39.923-112.799,39.923c-99.269,0-180.023-80.755-180.023-180.023
		S127.047,65.321,226.316,65.321c99.268,0,180.024,80.755,180.024,180.023c0,32.445-8.75,62.816-23.83,89.132l35.812,30.467
		c21.715-34.731,34.309-75.707,34.309-119.599c0-124.791-101.523-226.315-226.315-226.315C101.525,19.029,0,120.554,0,245.345
		C0,370.136,101.525,471.66,226.316,471.66c56.811,0,108.764-21.095,148.553-55.797L339.115,385.445z"/>
	<path fill="#e52981" d="M272.102,328.72c-13.588,7.497-29.195,11.781-45.786,11.781c-52.469,0-95.156-42.687-95.156-95.156
		c0-52.469,42.687-95.156,95.156-95.156s95.157,42.687,95.157,95.156c0,11.427-2.133,22.348-5.844,32.513l36.77,31.278
		c9.752-19.191,15.365-40.822,15.365-63.791c0-77.992-63.455-141.448-141.448-141.448c-77.992,0-141.449,63.457-141.449,141.448
		c0,77.992,63.457,141.448,141.449,141.448c30.821,0,59.278-10.021,82.534-26.813L272.102,328.72z"/>
	<path fill="#e52981" d="M454.449,439.023c1.434-1.702,2.457-3.596,3.213-5.565l48.949,2.735l-57.566-49.802l-17.633,7.928l-192.704-163.94
		c-8.042-6.837-20.119-5.872-26.956,2.171c-6.847,8.042-5.872,20.11,2.18,26.957l194.472,165.44l-2.781,16.734l52.594,45.9
		l-5.021-47.382C453.598,439.798,454.057,439.473,454.449,439.023z"/>
</g>
</svg>
